<svg xmlns="http://www.w3.org/2000/svg" viewBox="0 0 47.5 47.5"><defs><clipPath id="a"><path d="M0 38h38V0H0v38z"/></clipPath></defs><g clip-path="url(#a)" transform="matrix(1.25 0 0 -1.25 0 47.5)"><path d="M37 17C37 7 26 1 19 1S1 7.06 1 17c0 9.94 4 20 18 20s18-10 18-20m-1 19c1-1 0-11 0-11l-8 10s7 2 8 1" fill="#fb7"/><path d="M2 36c-1-1 0-11 0-11l8 10s-7 2-8 1" fill="#fb7"/><path d="M32.4 13.3c-.12.16-.33.24-.54.18-.07-.02-7-1.98-12.86-1.98-5.86 0-12.8 1.96-12.86 1.98-.2.06-.43-.02-.55-.2-.16-.18-.16-.42 0-.6.3-.36 7.2-9.18 13.4-9.18 7.15 0 13.14 8.85 13.4 9.22.1.18.1.4 0 .57" fill="#292f33"/><path d="M9 12s5-2 10-2 10 2 10 2 0-3-1-3-2 1-2 1-4-2-7-2-7 2-7 2-1-1-2-1-1 3-1 3" fill="#f5f8fa"/><path d="M19 17.5c3 0 3-.5 3-1.5s-1.5-3-3-3-3 2-3 3 0 1.5 3 1.5" fill="#67757f"/><path d="M27 16.5c-.2 0-.4.13-.47.34-.1.26.05.55.3.63l9 3c.28.1.56-.05.64-.3.1-.27-.05-.56-.3-.64l-9-3-.17-.03m-1-2c-.23 0-.44.16-.5.4-.05.27.13.54.4.6l10 2c.26.04.54-.13.6-.4.05-.27-.13-.54-.4-.6l-10-2H26m-15 2c-.05 0-.1 0-.16.03l-9 3c-.26.08-.4.37-.3.63.07.26.35.4.62.3l9-3c.26-.07.4-.36.3-.62-.06-.2-.25-.34-.46-.34m1-2h-.1l-10 2c-.27.06-.44.33-.4.6.06.27.32.45.6.4l10-2c.27-.06.44-.33.4-.6-.06-.24-.27-.4-.5-.4" fill="#9aaab4"/><path d="M17.23 31.88c-.86 2.43-3.53 3.7-5.96 2.85-1.48-.52-2.52-1.7-2.93-3.1-1.2.83-2.75 1.1-4.22.58-2.43-.82-3.7-3.5-2.85-5.92.12-.34.28-.66.47-.96 1.95-3.6 7.6-6.1 11-6.13 2.64 2.16 5.45 7.66 4.72 11.67-.04.35-.1.7-.23 1.04m3.54 0c.86 2.43 3.53 3.7 5.96 2.85 1.48-.52 2.52-1.7 2.93-3.1 1.2.83 2.75 1.1 4.22.58 2.43-.84 3.7-3.5 2.85-5.94-.12-.35-.28-.67-.47-.97-1.95-3.6-7.6-6.1-11-6.14-2.64 2.16-5.45 7.66-4.72 11.67.04.35.12.7.23 1.04" fill="#e75a70"/></g></svg>
